PathFileType	4	(X/Y/Z)	..\data\2014015\dynamic\2014015_C5_03.trc
DataRate	CameraRate	NumFrames	NumMarkers	Units	OrigDataRate	OrigDataStartFrame	OrigNumFrames
100.000000	100.000000	4	52	mm	100.000000	122	163
Frame#	Time	L_IAS			L_IPS			R_IPS			R_IAS			L_FTC			L_FLE			L_FME			L_FAX			L_TTC			L_FAL			L_TAM			L_FCC			L_FM1			L_FM2			L_FM5			R_FTC			R_FLE			R_FME			R_FAX			R_TTC			R_FAL			R_TAM			R_FCC			R_FM1			R_FM2			R_FM5			CV7			TV10			SXS			SJN			L_SIA			L_SRS			L_SAA			L_SAE			L_HLE			L_HME			L_UOA			L_RSP			L_UHE			L_HM2			L_HM5			R_SIA			R_SRS			R_SAA			R_SAE			R_HLE			R_HME			R_UOA			R_RSP			R_UHE			R_HM2			R_HM5			
		X1	Y1	Z1	X2	Y2	Z2	X3	Y3	Z3	X4	Y4	Z4	X5	Y5	Z5	X6	Y6	Z6	X7	Y7	Z7	X8	Y8	Z8	X9	Y9	Z9	X10	Y10	Z10	X11	Y11	Z11	X12	Y12	Z12	X13	Y13	Z13	X14	Y14	Z14	X15	Y15	Z15	X16	Y16	Z16	X17	Y17	Z17	X18	Y18	Z18	X19	Y19	Z19	X20	Y20	Z20	X21	Y21	Z21	X22	Y22	Z22	X23	Y23	Z23	X24	Y24	Z24	X25	Y25	Z25	X26	Y26	Z26	X27	Y27	Z27	X28	Y28	Z28	X29	Y29	Z29	X30	Y30	Z30	X31	Y31	Z31	X32	Y32	Z32	X33	Y33	Z33	X34	Y34	Z34	X35	Y35	Z35	X36	Y36	Z36	X37	Y37	Z37	X38	Y38	Z38	X39	Y39	Z39	X40	Y40	Z40	X41	Y41	Z41	X42	Y42	Z42	X43	Y43	Z43	X44	Y44	Z44	X45	Y45	Z45	X46	Y46	Z46	X47	Y47	Z47	X48	Y48	Z48	X49	Y49	Z49	X50	Y50	Z50	X51	Y51	Z51	X52	Y52	Z52	

123	1.22	396.3556518554689	822.5335693359377	132.448455810547	183.1351013183594	862.5832519531252	206.775848388672	183.9381866455078	870.9143066406252	315.6120605468751	417.1340637207032	843.1616210937502	378.6592712402345	314.7231750488282	747.6275634765626	67.00593566894537	305.7832641601563	409.8662414550782	82.58307647705084	356.7060241699219	374.3490295410157	216.1252288818361	260.5168762207032	379.4417419433594	78.01617431640629	323.6339416503907	334.5952453613282	117.8125915527344	21.15880393981932	228.671371459961	148.8226013183594	59.17946624755858	201.7428131103516	223.4710540771485	-17.46321868896487	238.9762878417969	200.1644897460938	29.54603195190428	75.08800506591798	224.9191436767579	42.77331542968749	69.62442779541017	171.9072875976563	9.970457077026355	100.9510879516602	121.1986236572266	357.8945922851562	761.0496215820314	442.4861145019533	398.3973693847657	415.0354003906251	368.5791931152345	420.0194396972657	407.9911499023439	233.0260620117189	402.4907531738282	361.1470947265626	367.2082824707032	455.0369262695313	365.9862365722657	305.5306091308595	366.8930969238281	54.11363983154298	314.2365722656251	395.1250000000001	80.34496307373048	228.6168060302736	330.8333435058594	18.28081893920899	268.3508605957032	505.6035156250001	20.07917213439942	218.7659454345704	525.5414428710939	32.09313583374024	273.9386596679689	475.1326904296876	22.11563682556153	329.0406799316407	233.4779815673828	1309.150268554688	265.6097412109376	172.6795654296875	1116.808471679688	256.5359191894532	424.8044433593751	1031.521484375	250.4101562500001	363.9008178710938	1242.962890625	258.7725830078126	168.1925964355469	1145.717407226563	184.4968872070313	203.5621185302735	1267.008056640625	186.5534210205079	237.5083312988282	1278.571044921875	124.8788757324219	297.1868896484376	1270.990478515625	83.15203094482428	272.0580444335938	1002.477172851563	19.49976730346683	247.0066833496094	980.6694335937502	105.1013183593751	236.6275024414063	975.7283935546877	56.83445739746098	375.6169128417969	806.4261474609377	36.69552612304692	310.2642822265626	794.4471435546877	-8.736805915832484	416.5341796875001	727.3082275390626	14.2203454971314	325.7843627929688	715.0142822265626	-17.57475090026852	175.500732421875	1138.750854492188	355.6247863769532	212.4771423339844	1261.696044921875	348.4518127441407	242.66552734375	1266.25537109375	405.9319152832033	321.4547424316406	1260.768920898438	435.3016662597658	286.9817810058594	988.7473144531252	508.4536437988283	230.9171752929688	986.0677490234377	422.4271240234376	237.5258026123047	976.575866699219	478.7928466796877	343.6788330078125	781.005554199219	476.2712707519533	293.77685546875	779.3018188476565	536.7224121093751	363.6324157714844	687.6689453125001	493.9188232421877	277.107421875	710.8345336914064	542.4677124023439	
124	1.23	407.9390869140626	824.7824707031252	131.9446411132813	194.8661651611328	864.4387207031252	208.6372680664063	195.6189422607422	873.1000976562502	316.6478271484376	428.5163879394532	843.955993652344	380.3011169433595	327.2899169921876	749.6988525390626	68.69804382324224	330.4420471191407	411.728240966797	81.85423278808599	380.9765319824219	377.6426391601563	216.5586242675782	286.2016296386719	380.6901550292969	77.61348724365239	349.5008239746094	336.9845886230469	117.8544006347657	46.63707351684569	230.366195678711	149.7047729492188	84.86059570312499	204.4721679687501	224.5922546386719	7.011939525604225	239.373031616211	200.9229431152344	60.69717788696288	76.73014068603517	224.5408630371094	73.51252746582031	72.23281097412111	171.731430053711	39.86718368530273	103.0501785278321	121.4287490844727	367.7088623046875	761.1660766601564	443.3739013671877	402.6800231933594	414.738983154297	369.3577575683595	423.9306640625001	407.2375793457032	233.7922515869142	405.9488525390626	360.7025451660157	367.856414794922	458.7288513183594	365.0624084472657	306.0718994140626	367.0628051757812	54.07089996337892	314.3828735351564	395.2983703613282	80.30684661865236	228.7937622070314	330.6946105957031	18.43095016479493	268.4587707519532	505.4616699218751	20.47984313964844	218.8943634033204	525.4567871093751	32.26915740966798	274.0796813964845	475.0363769531251	22.10835075378418	329.1775512695314	246.3101806640625	1310.858642578125	266.3991699218751	185.1078796386719	1118.631591796875	257.5596923828126	437.1241149902344	1032.80517578125	250.6819610595704	376.290283203125	1244.438232421875	259.3681945800782	180.533203125	1147.698486328125	185.7240600585938	216.076416015625	1268.893676757813	187.5818634033204	250.1297302246094	1280.509399414063	125.6938552856446	309.5825195312501	1272.7392578125	83.85635375976568	282.7408447265626	1004.300354003906	20.50046920776371	256.8688049316407	983.0531005859377	105.9445037841797	246.9538726806641	978.175231933594	57.60918426513676	383.0751037597657	806.732116699219	38.75189590454107	317.9512023925782	795.753845214844	-7.168490409851037	422.2273559570314	726.2732543945314	17.93323326110846	331.7229309082032	715.7816772460939	-14.75891494750973	188.0987243652343	1140.401000976563	356.7756652832032	225.2627258300781	1263.258178710938	349.3487243652344	255.5715942382812	1267.57958984375	406.8840637207033	334.2637329101562	1261.84814453125	436.0242309570314	301.2819213867188	989.8145141601565	509.0434875488283	244.6069793701172	986.859558105469	423.2898864746095	251.799072265625	977.364685058594	479.544891357422	359.5430603027344	782.5673828125002	476.3046264648439	309.9391479492188	780.3690185546877	536.9094848632814	381.0107116699219	689.7796020507814	494.2422485351564	294.3401184082031	711.7921752929689	542.9743041992189	
125	1.24	419.1749877929689	827.2135009765627	130.9329376220704	206.4412689208985	866.3889160156252	210.8210906982423	207.2508087158203	875.077819824219	317.8421325683594	439.6770019531251	844.5653076171877	381.9569702148439	339.2837524414063	751.9333496093751	70.39859771728521	354.9755249023438	413.9678955078126	81.54570770263678	404.6555786132814	381.7354125976563	217.483367919922	311.8362121582032	382.0634765625001	77.65773010253912	375.6055603027344	339.8798522949219	118.2538146972657	72.80059051513672	230.7051086425782	150.429428100586	111.2341384887695	206.1672668457032	225.6522521972657	31.99895095825194	238.1598815917969	201.4620666503907	93.54383850097655	77.50354766845705	224.4027252197266	106.1311721801758	74.14221191406251	171.7794036865235	71.46162414550781	103.7662582397461	121.7635498046875	377.2275695800781	760.9161376953126	444.2299804687502	406.7183837890626	414.4371337890626	370.0848999023439	427.9623413085938	406.4297180175782	234.5776824951173	409.1511535644532	360.2496948242188	368.4487915039064	462.2305297851563	364.1480712890626	306.6831359863282	367.2257995605469	54.02139282226564	314.4985351562501	395.5986328125001	80.27234649658205	228.9768218994142	330.5273132324219	18.64976882934571	268.5210266113282	505.3809814453126	20.80073738098145	219.0675354003907	525.3758544921876	32.30561065673829	274.2442321777345	474.9325561523438	21.97040557861328	329.3092346191407	259.1035461425781	1312.50341796875	267.077606201172	197.4690551757813	1120.390014648438	258.5617370605469	449.3578796386719	1034.025268554688	250.9609832763673	388.6454467773438	1245.857055664063	259.8974914550782	192.8234100341797	1149.558837890625	186.9152374267579	228.5129089355469	1270.677978515625	188.5745849609376	262.6595153808594	1282.305053710938	126.4505310058594	321.8427429199219	1274.336181640625	84.49045562744146	293.3309020996094	1006.0234375	21.37914276123051	266.6380615234376	985.2911376953127	106.6407623291016	257.2003479003907	980.5029907226565	58.21150970458989	390.4332580566407	807.017761230469	40.69070434570318	325.6604309082032	797.0319824218752	-5.887028217315635	427.7749023437501	725.2445068359376	21.65283393859869	337.6254882812501	716.5957031250001	-12.16499137878414	200.5851287841797	1142.019897460938	357.8933105468751	237.9380798339844	1264.795532226563	350.1570739746095	268.3327331542969	1268.90380859375	407.7451477050783	346.9151000976562	1262.9619140625	436.6997070312502	315.3661193847656	990.893493652344	509.5856018066408	258.2861633300781	987.6351318359377	424.027801513672	265.8951110839844	978.1267089843752	480.2032165527345	375.3812866210938	784.2203369140627	476.2335205078127	325.9988708496094	781.409851074219	536.9039306640626	398.6176147460938	692.1083984375001	494.5095214843752	311.6486206054688	712.6798095703126	543.2109375000001	
126	1.25	430.1372985839845	829.7498168945315	129.5870361328126	217.8913726806641	868.3951416015627	213.2204132080079	218.8641967773438	876.8310546875002	319.1649475097657	450.6493835449219	845.0233154296877	383.6020812988282	350.7866516113282	754.2160034179689	72.06667327880865	379.3346252441407	416.5054016113282	81.66815948486334	427.7715148925782	386.4371643066407	218.8257293701173	337.3301696777344	383.5279541015626	78.13141632080084	401.8134155273439	343.2175598144532	118.9963455200196	99.59555053710939	229.6427459716797	150.9705657958985	138.2242736816406	206.7244262695313	226.6035461425782	57.50488662719726	235.3235626220704	201.750961303711	127.7974700927734	77.39919281005861	224.4705810546876	140.3117065429688	75.27792358398439	172.0132751464844	104.4931945800781	103.1333618164063	122.1758193969727	386.5268249511719	760.3940429687501	445.0604553222658	410.5768432617188	414.156951904297	370.7541503906251	432.2502746582032	405.6141967773439	235.3814544677736	412.1636047363282	359.8165588378907	368.9810485839845	465.6083984375001	363.2529296875001	307.3824157714845	367.3871765136719	53.98789596557619	314.5762634277345	396.0449218750001	80.26698303222658	229.1575012207032	330.3533630371094	18.95031929016114	268.5271301269532	505.3684082031251	21.05270957946778	219.2780151367189	525.3234863281251	32.22408676147462	274.4335021972657	474.8334960937501	21.73939895629883	329.445526123047	271.8638000488281	1314.06298828125	267.6649475097657	209.7763977050782	1122.060424804688	259.5471191406251	461.5260009765626	1035.175537109375	251.2651824951173	400.9793701171876	1247.203247070313	260.3739624023439	205.0788116455078	1151.277954101563	188.068099975586	240.8839416503907	1272.34033203125	189.5403289794922	275.1015319824219	1283.941650390625	127.1678771972657	333.9908752441407	1275.771240234375	85.07322692871099	303.8296508789063	1007.629516601563	22.16984367370609	276.3601379394532	987.3738403320315	107.2367782592774	267.3804626464844	982.6926269531252	58.69326782226567	397.7031860351564	807.264099121094	42.50298690795904	333.3903808593751	798.2567138671877	-4.852907657623251	433.2259521484376	724.2330322265626	25.29678916931158	343.5039367675782	717.4398193359376	-9.797692298889119	212.9774780273438	1143.59228515625	358.9813537597657	250.5202941894531	1266.290893554688	350.8944702148439	280.9715576171875	1270.219604492188	408.5281066894533	359.4440612792969	1264.113037109375	437.3355712890627	329.2599182128906	991.9798583984377	510.0913696289064	271.9831848144531	988.3994140625002	424.6568603515627	279.8271789550781	978.8632812500002	480.790985107422	391.1773681640626	785.9617309570315	476.0643615722658	341.9570617675781	782.429138183594	536.7269897460939	416.3908081054688	694.6311645507814	494.6904602050783	328.9986267089844	713.5032958984376	543.1816406250001	
